<svg xmlns="http://www.w3.org/2000/svg" version="1.1" xmlns:xlink="http://www.w3.org/1999/xlink" xmlns:svgjs="http://svgjs.dev/svgjs" viewBox="0 0 2400 800" opacity="0.29"><defs><linearGradient x1="50%" y1="0%" x2="50%" y2="100%" id="sssurf-grad"><stop stop-color="hsl(208, 77%, 50%)" stop-opacity="1" offset="0%"></stop><stop stop-color="hsl(208, 74%, 93%)" stop-opacity="1" offset="100%"></stop></linearGradient></defs><g fill="url(#sssurf-grad)" transform="matrix(1,0,0,1,0,-394.84393310546875)"><path d="M 0 313.6878789303429 Q 900 580.3864838779083 1200 339.4535119088266 Q 2100 492.9353435776587 2400 339.67758824853985 L 2400 800 L 0 800 L 0 334.1918356696528 Z" transform="matrix(1,0,0,1,0,146)" opacity="0.05"></path><path d="M 0 313.6878789303429 Q 900 580.3864838779083 1200 339.4535119088266 Q 2100 492.9353435776587 2400 339.67758824853985 L 2400 800 L 0 800 L 0 334.1918356696528 Z" transform="matrix(1,0,0,1,0,292)" opacity="0.29"></path><path d="M 0 313.6878789303429 Q 900 580.3864838779083 1200 339.4535119088266 Q 2100 492.9353435776587 2400 339.67758824853985 L 2400 800 L 0 800 L 0 334.1918356696528 Z" transform="matrix(1,0,0,1,0,438)" opacity="0.53"></path><path d="M 0 313.6878789303429 Q 900 580.3864838779083 1200 339.4535119088266 Q 2100 492.9353435776587 2400 339.67758824853985 L 2400 800 L 0 800 L 0 334.1918356696528 Z" transform="matrix(1,0,0,1,0,584)" opacity="0.76"></path><path d="M 0 313.6878789303429 Q 900 580.3864838779083 1200 339.4535119088266 Q 2100 492.9353435776587 2400 339.67758824853985 L 2400 800 L 0 800 L 0 334.1918356696528 Z" transform="matrix(1,0,0,1,0,730)" opacity="1.00"></path></g></svg>